<?xml version="1.0" encoding="UTF-8" standalone="no"?>
<!-- Created with Inkscape (http://www.inkscape.org/) -->

<svg
   version="1.1"
   id="svg2"
   width="15.36"
   height="15.36"
   viewBox="0 0 15.36 15.36"
   xmlns="http://www.w3.org/2000/svg"
   xmlns:svg="http://www.w3.org/2000/svg">
  <defs
     id="defs6" />
  <g
     id="g8">
    <path
       id="path1111"
       style="fill:#000000;stroke-width:0.32"
       d="m 8.6503906,3.1992188 c -6.30523,0 -6.727728,0.037406 -7.0390625,0.6191406 -0.475232,0.8879789 -0.408417,1.8181457 0.171875,2.3984375 0.3990492,0.3990493 1.274573,0.5036352 4.2402344,0.5078125 3.2761926,0.00461 3.8895073,0.094125 4.9824215,0.7207031 2.306983,1.3226118 3.097655,4.2844875 1.792969,6.7187495 l -0.640625,1.195313 h 1.601563 1.599609 V 9.2792969 3.1992188 Z M 0,8.9433594 v 2.2480466 2.248047 h 4.6171875 c 3.770736,0 4.7084666,-0.09128 5.1191406,-0.501953 C 10.388479,12.285348 10.378368,11.243361 9.7109375,10.505859 9.2568998,10.004153 8.6612301,9.9199219 5.5351562,9.9199219 c -2.6425543,0 -3.9075795,-0.1344589 -4.59179682,-0.4882813 z" />
    <path
       style="fill:#212178;stroke:#ff0000;stroke-width:0.0802787"
       d="m 12.456919,14.83267 c 0.632316,-1.173627 0.793709,-1.590461 0.926159,-2.39201 0.05676,-0.343517 0.05672,-1.159583 -8.8e-5,-1.502602 C 13.103017,9.2473597 12.145939,7.9626486 10.61765,7.2260676 10.064461,6.9594499 9.5444153,6.8381468 8.6731066,6.7724931 8.2981464,6.7442397 6.5241335,6.7086323 5.4027377,6.7068512 4.1464673,6.7048559 3.2879526,6.6620695 2.7289121,6.5735939 2.103866,6.4746721 1.8296538,6.3230259 1.5837832,5.9403097 1.2174851,5.370139 1.218838,4.6394018 1.587548,3.906802 1.7031503,3.6771089 1.7872927,3.5817683 1.944396,3.5024628 2.2717469,3.3372166 2.8180288,3.2762196 4.3199805,3.2372088 4.7696562,3.2255292 7.4370508,3.2157826 10.247524,3.2155496 l 5.109951,-4.235e-4 v 6.0656504 6.0656505 h -1.588677 -1.588676 z"
       id="path3571" />
    <path
       style="fill:#212178;stroke:#ff0000;stroke-width:0.0802787"
       d="M 0,11.191472 V 8.9589648 l 0.53585436,0.2750698 c 0.59136694,0.303566 0.79306294,0.382734 1.18080934,0.4634815 0.7995121,0.1664968 1.5273703,0.2087453 4.050676,0.2351212 1.9016731,0.019878 2.3536873,0.036113 2.8173786,0.1011937 0.3376971,0.0474 0.5018953,0.09035 0.7071067,0.184966 0.5423666,0.250074 0.94767,0.979327 0.909416,1.63629 -0.02112,0.362707 -0.172835,0.736222 -0.4018169,0.989255 -0.2424146,0.267877 -0.5029969,0.3743 -1.1160167,0.455787 -0.7673371,0.101999 -1.7015537,0.123122 -5.462757,0.123515 L 0,13.42398 Z"
       id="path3869" />
    <path
       style="fill:#ff0000;stroke:#ff0000;stroke-width:0.0802787"
       d="m 12.32607,15.186223 c 0.509019,-0.902499 0.852608,-1.654358 0.986265,-2.158196 0.12573,-0.473957 0.153748,-0.718485 0.153386,-1.338668 -3.58e-4,-0.612065 -0.01902,-0.78808 -0.130007,-1.225908 C 13.104541,9.5514819 12.688694,8.8088947 12.054574,8.1756941 11.379231,7.5013292 10.515704,7.0247351 9.6550147,6.8513379 8.9954423,6.7184584 8.5000811,6.6933137 5.9315513,6.6623325 3.8287954,6.6369694 3.3465024,6.6149607 2.7070318,6.515186 2.1238574,6.424195 1.8275671,6.2469512 1.5920635,5.8482007 1.445944,5.6007937 1.3875119,5.3910856 1.3751344,5.0696593 1.3593981,4.6610134 1.4251036,4.370609 1.6283821,3.950358 1.8486857,3.4949099 2.0868104,3.4059709 3.3035145,3.3247006 3.8289158,3.2896061 7.3704787,3.2622282 11.584398,3.2606855 l 3.728883,-0.00137 v 6.0214562 6.0214563 h -1.52632 -1.526321 z"
       id="path4358" />
    <path
       style="fill:#ff0000;stroke:#ff0000;stroke-width:0.0802787"
       d="m 0.04419417,11.215783 c 0,-1.19389 0.0077271,-2.1673942 0.01717132,-2.1633431 0.0094442,0.00405 0.23566315,0.1175327 0.50270873,0.2521812 C 1.1436658,9.5968602 1.3385088,9.6700524 1.7652833,9.7558518 2.554391,9.9144952 3.3377148,9.956362 6.1098445,9.9880579 8.6997687,10.01767 9.1493828,10.0834 9.5871977,10.496412 10.288866,11.158331 10.333263,12.256287 9.6834237,12.876129 9.4927163,13.058033 9.2971734,13.142642 8.9051258,13.21289 8.2165479,13.336271 7.51384,13.357099 3.5079123,13.372862 l -3.46371833,0.01363 z"
       id="path4397" />
  </g>
</svg>
